%TF.GenerationSoftware,KiCad,Pcbnew,9.0.5*%
%TF.CreationDate,2025-10-26T09:27:43-06:00*%
%TF.ProjectId,powerBank,706f7765-7242-4616-9e6b-2e6b69636164,rev?*%
%TF.SameCoordinates,Original*%
%TF.FileFunction,Copper,L1,Top*%
%TF.FilePolarity,Positive*%
%FSLAX46Y46*%
G04 Gerber Fmt 4.6, Leading zero omitted, Abs format (unit mm)*
G04 Created by KiCad (PCBNEW 9.0.5) date 2025-10-26 09:27:43*
%MOMM*%
%LPD*%
G01*
G04 APERTURE LIST*
G04 Aperture macros list*
%AMRoundRect*
0 Rectangle with rounded corners*
0 $1 Rounding radius*
0 $2 $3 $4 $5 $6 $7 $8 $9 X,Y pos of 4 corners*
0 Add a 4 corners polygon primitive as box body*
4,1,4,$2,$3,$4,$5,$6,$7,$8,$9,$2,$3,0*
0 Add four circle primitives for the rounded corners*
1,1,$1+$1,$2,$3*
1,1,$1+$1,$4,$5*
1,1,$1+$1,$6,$7*
1,1,$1+$1,$8,$9*
0 Add four rect primitives between the rounded corners*
20,1,$1+$1,$2,$3,$4,$5,0*
20,1,$1+$1,$4,$5,$6,$7,0*
20,1,$1+$1,$6,$7,$8,$9,0*
20,1,$1+$1,$8,$9,$2,$3,0*%
G04 Aperture macros list end*
%TA.AperFunction,SMDPad,CuDef*%
%ADD10RoundRect,0.175000X0.425000X-0.175000X0.425000X0.175000X-0.425000X0.175000X-0.425000X-0.175000X0*%
%TD*%
%TA.AperFunction,SMDPad,CuDef*%
%ADD11RoundRect,0.190000X-0.410000X0.190000X-0.410000X-0.190000X0.410000X-0.190000X0.410000X0.190000X0*%
%TD*%
%TA.AperFunction,SMDPad,CuDef*%
%ADD12RoundRect,0.200000X-0.400000X0.200000X-0.400000X-0.200000X0.400000X-0.200000X0.400000X0.200000X0*%
%TD*%
%TA.AperFunction,SMDPad,CuDef*%
%ADD13RoundRect,0.175000X-0.425000X0.175000X-0.425000X-0.175000X0.425000X-0.175000X0.425000X0.175000X0*%
%TD*%
%TA.AperFunction,SMDPad,CuDef*%
%ADD14RoundRect,0.190000X0.410000X-0.190000X0.410000X0.190000X-0.410000X0.190000X-0.410000X-0.190000X0*%
%TD*%
%TA.AperFunction,SMDPad,CuDef*%
%ADD15RoundRect,0.200000X0.400000X-0.200000X0.400000X0.200000X-0.400000X0.200000X-0.400000X-0.200000X0*%
%TD*%
%TA.AperFunction,SMDPad,CuDef*%
%ADD16RoundRect,0.250000X0.425000X-0.650000X0.425000X0.650000X-0.425000X0.650000X-0.425000X-0.650000X0*%
%TD*%
%TA.AperFunction,SMDPad,CuDef*%
%ADD17RoundRect,0.250000X0.500000X-0.650000X0.500000X0.650000X-0.500000X0.650000X-0.500000X-0.650000X0*%
%TD*%
%TA.AperFunction,ComponentPad*%
%ADD18RoundRect,0.190500X0.762000X0.444500X-0.762000X0.444500X-0.762000X-0.444500X0.762000X-0.444500X0*%
%TD*%
%TA.AperFunction,ComponentPad*%
%ADD19C,1.400000*%
%TD*%
%TA.AperFunction,ComponentPad*%
%ADD20RoundRect,0.750000X-1.750000X-0.750000X1.750000X-0.750000X1.750000X0.750000X-1.750000X0.750000X0*%
%TD*%
%TA.AperFunction,ComponentPad*%
%ADD21C,3.800000*%
%TD*%
%TA.AperFunction,SMDPad,CuDef*%
%ADD22RoundRect,0.075000X-0.390000X-0.275000X0.390000X-0.275000X0.390000X0.275000X-0.390000X0.275000X0*%
%TD*%
%TA.AperFunction,SMDPad,CuDef*%
%ADD23RoundRect,0.075000X-0.075000X-0.275000X0.075000X-0.275000X0.075000X0.275000X-0.075000X0.275000X0*%
%TD*%
%TA.AperFunction,ComponentPad*%
%ADD24C,2.010000*%
%TD*%
%TA.AperFunction,Conductor*%
%ADD25C,0.800000*%
%TD*%
%TA.AperFunction,Conductor*%
%ADD26C,0.200000*%
%TD*%
G04 APERTURE END LIST*
D10*
%TO.P,J2,A5,CC1*%
%TO.N,Net-(J2-CC1)*%
X189405000Y-66585000D03*
D11*
%TO.P,J2,A9,VBUS*%
%TO.N,Net-(D1-A)*%
X189405000Y-64565000D03*
D12*
%TO.P,J2,A12,GND*%
%TO.N,Net-(D1-K)*%
X189405000Y-63335000D03*
D13*
%TO.P,J2,B5,CC2*%
%TO.N,Net-(J2-CC2)*%
X189405000Y-65585000D03*
D14*
%TO.P,J2,B9,VBUS*%
%TO.N,Net-(D1-A)*%
X189405000Y-67605000D03*
D15*
%TO.P,J2,B12,GND*%
%TO.N,Net-(D1-K)*%
X189405000Y-68835000D03*
D16*
%TO.P,J2,S1,SHIELD*%
X189460000Y-71210000D03*
D17*
X193040000Y-71210000D03*
D16*
X189460000Y-60960000D03*
D17*
X193040000Y-60960000D03*
%TD*%
D18*
%TO.P,U1,1,out+*%
%TO.N,Net-(U1-out+)*%
X112395000Y-74930000D03*
%TO.P,U1,2,b+*%
%TO.N,Net-(U1-b+)*%
X112395000Y-72390000D03*
%TO.P,U1,3,b-*%
%TO.N,Net-(U1-b-)*%
X112395000Y-66040000D03*
%TO.P,U1,4,out-*%
%TO.N,Net-(U1-out-)*%
X112395000Y-63500000D03*
%TD*%
D19*
%TO.P,R1,1*%
%TO.N,Net-(D1-A)*%
X177800000Y-64135000D03*
%TO.P,R1,2*%
%TO.N,Net-(J2-CC1)*%
X179700000Y-64135000D03*
%TD*%
D20*
%TO.P,U2,1,vout+*%
%TO.N,Net-(U1-out+)*%
X126345000Y-71755000D03*
%TO.P,U2,2,vout-*%
%TO.N,Net-(U1-out-)*%
X126345000Y-64955000D03*
%TO.P,U2,3,vin+*%
%TO.N,Net-(U2-vin+)*%
X156845000Y-64955000D03*
%TO.P,U2,4,vin-*%
%TO.N,Net-(D1-K)*%
X156845000Y-71755000D03*
%TD*%
D21*
%TO.P,H1,1,1*%
%TO.N,Net-(U1-b+)*%
X134980000Y-80090000D03*
%TD*%
D19*
%TO.P,R2,1*%
%TO.N,Net-(J2-CC2)*%
X182880000Y-60960000D03*
%TO.P,R2,2*%
%TO.N,Net-(D1-A)*%
X184780000Y-60960000D03*
%TD*%
D21*
%TO.P,H2,1,1*%
%TO.N,Net-(U1-b-)*%
X134980000Y-85440000D03*
%TD*%
D22*
%TO.P,D1,1,K*%
%TO.N,Net-(D1-K)*%
X167640000Y-80645000D03*
D23*
%TO.P,D1,2,A*%
%TO.N,Net-(D1-A)*%
X168525000Y-80645000D03*
%TD*%
D24*
%TO.P,F1,1*%
%TO.N,Net-(U2-vin+)*%
X164455000Y-54010000D03*
%TO.P,F1,2*%
%TO.N,Net-(D1-A)*%
X169555000Y-55210000D03*
%TD*%
D25*
%TO.N,Net-(D1-K)*%
X194945000Y-69215000D02*
X194565000Y-68835000D01*
X194945000Y-63500000D02*
X194945000Y-69215000D01*
X194780000Y-63335000D02*
X194945000Y-63500000D01*
X194565000Y-68835000D02*
X189405000Y-68835000D01*
X189405000Y-63335000D02*
X194780000Y-63335000D01*
%TO.N,Net-(D1-A)*%
X193470000Y-64565000D02*
X189405000Y-64565000D01*
X193675000Y-67310000D02*
X193675000Y-64770000D01*
X193675000Y-64770000D02*
X193470000Y-64565000D01*
X193380000Y-67605000D02*
X193675000Y-67310000D01*
X189405000Y-67605000D02*
X193380000Y-67605000D01*
X168706000Y-80214000D02*
X168706000Y-80645000D01*
X181270000Y-67650000D02*
X168706000Y-80214000D01*
X181270000Y-67605000D02*
X181270000Y-67650000D01*
X189405000Y-67605000D02*
X181270000Y-67605000D01*
X181270000Y-67605000D02*
X177800000Y-64135000D01*
%TO.N,Net-(D1-K)*%
X165735000Y-80645000D02*
X156845000Y-71755000D01*
X167640000Y-80645000D02*
X165735000Y-80645000D01*
X167005000Y-86360000D02*
X167640000Y-85725000D01*
X167640000Y-85725000D02*
X167640000Y-80645000D01*
X169545000Y-86360000D02*
X167005000Y-86360000D01*
X183260000Y-72645000D02*
X169545000Y-86360000D01*
D26*
X189460000Y-60960000D02*
X193040000Y-60960000D01*
X189405000Y-61015000D02*
X189460000Y-60960000D01*
X189405000Y-63335000D02*
X189405000Y-61015000D01*
X189405000Y-70835000D02*
X189405000Y-68835000D01*
X189460000Y-70890000D02*
X189405000Y-70835000D01*
X189460000Y-71210000D02*
X189460000Y-70890000D01*
X189460000Y-71210000D02*
X193040000Y-71210000D01*
D25*
X183260000Y-68835000D02*
X183260000Y-72645000D01*
%TO.N,Net-(U1-out-)*%
X115120000Y-64955000D02*
X113665000Y-63500000D01*
X113665000Y-63500000D02*
X112395000Y-63500000D01*
X115120000Y-64955000D02*
X126345000Y-64955000D01*
%TO.N,Net-(U1-out+)*%
X113030000Y-74930000D02*
X116205000Y-71755000D01*
D26*
X112395000Y-74930000D02*
X113030000Y-74930000D01*
D25*
X116205000Y-71755000D02*
X126345000Y-71755000D01*
%TO.N,Net-(U1-b+)*%
X106680000Y-74930000D02*
X111840000Y-80090000D01*
X112395000Y-72390000D02*
X109220000Y-72390000D01*
X109220000Y-72390000D02*
X106680000Y-74930000D01*
X111840000Y-80090000D02*
X134980000Y-80090000D01*
%TO.N,Net-(U1-b-)*%
X134980000Y-85440000D02*
X108935000Y-85440000D01*
X99695000Y-76200000D02*
X109855000Y-66040000D01*
X108935000Y-85440000D02*
X99695000Y-76200000D01*
X109855000Y-66040000D02*
X112395000Y-66040000D01*
%TO.N,Net-(D1-A)*%
X188385000Y-64565000D02*
X189405000Y-64565000D01*
X169555000Y-55210000D02*
X177800000Y-63455000D01*
D26*
X177800000Y-63455000D02*
X177800000Y-64135000D01*
D25*
X184780000Y-60960000D02*
X188385000Y-64565000D01*
%TO.N,Net-(D1-K)*%
X189405000Y-68835000D02*
X183260000Y-68835000D01*
%TO.N,Net-(J2-CC1)*%
X179700000Y-64135000D02*
X182150000Y-66585000D01*
X182150000Y-66585000D02*
X189405000Y-66585000D01*
%TO.N,Net-(J2-CC2)*%
X187505000Y-65585000D02*
X189405000Y-65585000D01*
X182880000Y-60960000D02*
X187505000Y-65585000D01*
%TO.N,Net-(U2-vin+)*%
X157795000Y-65905000D02*
X167742500Y-65905000D01*
X167742500Y-57297500D02*
X164455000Y-54010000D01*
D26*
X156845000Y-64955000D02*
X157795000Y-65905000D01*
D25*
X167742500Y-65905000D02*
X167742500Y-57297500D01*
%TD*%
M02*
