%TF.GenerationSoftware,KiCad,Pcbnew,9.0.5*%
%TF.CreationDate,2025-10-22T09:55:28-06:00*%
%TF.ProjectId,powerBank,706f7765-7242-4616-9e6b-2e6b69636164,rev?*%
%TF.SameCoordinates,Original*%
%TF.FileFunction,Legend,Top*%
%TF.FilePolarity,Positive*%
%FSLAX46Y46*%
G04 Gerber Fmt 4.6, Leading zero omitted, Abs format (unit mm)*
G04 Created by KiCad (PCBNEW 9.0.5) date 2025-10-22 09:55:28*
%MOMM*%
%LPD*%
G01*
G04 APERTURE LIST*
%ADD10C,0.150000*%
%ADD11C,0.100000*%
%ADD12C,0.120000*%
G04 APERTURE END LIST*
D10*
X187392319Y-66418333D02*
X188106604Y-66418333D01*
X188106604Y-66418333D02*
X188249461Y-66465952D01*
X188249461Y-66465952D02*
X188344700Y-66561190D01*
X188344700Y-66561190D02*
X188392319Y-66704047D01*
X188392319Y-66704047D02*
X188392319Y-66799285D01*
X187487557Y-65989761D02*
X187439938Y-65942142D01*
X187439938Y-65942142D02*
X187392319Y-65846904D01*
X187392319Y-65846904D02*
X187392319Y-65608809D01*
X187392319Y-65608809D02*
X187439938Y-65513571D01*
X187439938Y-65513571D02*
X187487557Y-65465952D01*
X187487557Y-65465952D02*
X187582795Y-65418333D01*
X187582795Y-65418333D02*
X187678033Y-65418333D01*
X187678033Y-65418333D02*
X187820890Y-65465952D01*
X187820890Y-65465952D02*
X188392319Y-66037380D01*
X188392319Y-66037380D02*
X188392319Y-65418333D01*
D11*
X120776904Y-62002580D02*
X120776904Y-61193057D01*
X120776904Y-61193057D02*
X120729285Y-61097819D01*
X120729285Y-61097819D02*
X120681666Y-61050200D01*
X120681666Y-61050200D02*
X120586428Y-61002580D01*
X120586428Y-61002580D02*
X120395952Y-61002580D01*
X120395952Y-61002580D02*
X120300714Y-61050200D01*
X120300714Y-61050200D02*
X120253095Y-61097819D01*
X120253095Y-61097819D02*
X120205476Y-61193057D01*
X120205476Y-61193057D02*
X120205476Y-62002580D01*
X119205476Y-61002580D02*
X119776904Y-61002580D01*
X119491190Y-61002580D02*
X119491190Y-62002580D01*
X119491190Y-62002580D02*
X119586428Y-61859723D01*
X119586428Y-61859723D02*
X119681666Y-61764485D01*
X119681666Y-61764485D02*
X119776904Y-61716866D01*
D10*
X178583333Y-62669819D02*
X178250000Y-62193628D01*
X178011905Y-62669819D02*
X178011905Y-61669819D01*
X178011905Y-61669819D02*
X178392857Y-61669819D01*
X178392857Y-61669819D02*
X178488095Y-61717438D01*
X178488095Y-61717438D02*
X178535714Y-61765057D01*
X178535714Y-61765057D02*
X178583333Y-61860295D01*
X178583333Y-61860295D02*
X178583333Y-62003152D01*
X178583333Y-62003152D02*
X178535714Y-62098390D01*
X178535714Y-62098390D02*
X178488095Y-62146009D01*
X178488095Y-62146009D02*
X178392857Y-62193628D01*
X178392857Y-62193628D02*
X178011905Y-62193628D01*
X179535714Y-62669819D02*
X178964286Y-62669819D01*
X179250000Y-62669819D02*
X179250000Y-61669819D01*
X179250000Y-61669819D02*
X179154762Y-61812676D01*
X179154762Y-61812676D02*
X179059524Y-61907914D01*
X179059524Y-61907914D02*
X178964286Y-61955533D01*
X140583095Y-68809819D02*
X140583095Y-69619342D01*
X140583095Y-69619342D02*
X140630714Y-69714580D01*
X140630714Y-69714580D02*
X140678333Y-69762200D01*
X140678333Y-69762200D02*
X140773571Y-69809819D01*
X140773571Y-69809819D02*
X140964047Y-69809819D01*
X140964047Y-69809819D02*
X141059285Y-69762200D01*
X141059285Y-69762200D02*
X141106904Y-69714580D01*
X141106904Y-69714580D02*
X141154523Y-69619342D01*
X141154523Y-69619342D02*
X141154523Y-68809819D01*
X141583095Y-68905057D02*
X141630714Y-68857438D01*
X141630714Y-68857438D02*
X141725952Y-68809819D01*
X141725952Y-68809819D02*
X141964047Y-68809819D01*
X141964047Y-68809819D02*
X142059285Y-68857438D01*
X142059285Y-68857438D02*
X142106904Y-68905057D01*
X142106904Y-68905057D02*
X142154523Y-69000295D01*
X142154523Y-69000295D02*
X142154523Y-69095533D01*
X142154523Y-69095533D02*
X142106904Y-69238390D01*
X142106904Y-69238390D02*
X141535476Y-69809819D01*
X141535476Y-69809819D02*
X142154523Y-69809819D01*
X134218095Y-77694819D02*
X134218095Y-76694819D01*
X134218095Y-77171009D02*
X134789523Y-77171009D01*
X134789523Y-77694819D02*
X134789523Y-76694819D01*
X135789523Y-77694819D02*
X135218095Y-77694819D01*
X135503809Y-77694819D02*
X135503809Y-76694819D01*
X135503809Y-76694819D02*
X135408571Y-76837676D01*
X135408571Y-76837676D02*
X135313333Y-76932914D01*
X135313333Y-76932914D02*
X135218095Y-76980533D01*
X183663333Y-59494819D02*
X183330000Y-59018628D01*
X183091905Y-59494819D02*
X183091905Y-58494819D01*
X183091905Y-58494819D02*
X183472857Y-58494819D01*
X183472857Y-58494819D02*
X183568095Y-58542438D01*
X183568095Y-58542438D02*
X183615714Y-58590057D01*
X183615714Y-58590057D02*
X183663333Y-58685295D01*
X183663333Y-58685295D02*
X183663333Y-58828152D01*
X183663333Y-58828152D02*
X183615714Y-58923390D01*
X183615714Y-58923390D02*
X183568095Y-58971009D01*
X183568095Y-58971009D02*
X183472857Y-59018628D01*
X183472857Y-59018628D02*
X183091905Y-59018628D01*
X184044286Y-58590057D02*
X184091905Y-58542438D01*
X184091905Y-58542438D02*
X184187143Y-58494819D01*
X184187143Y-58494819D02*
X184425238Y-58494819D01*
X184425238Y-58494819D02*
X184520476Y-58542438D01*
X184520476Y-58542438D02*
X184568095Y-58590057D01*
X184568095Y-58590057D02*
X184615714Y-58685295D01*
X184615714Y-58685295D02*
X184615714Y-58780533D01*
X184615714Y-58780533D02*
X184568095Y-58923390D01*
X184568095Y-58923390D02*
X183996667Y-59494819D01*
X183996667Y-59494819D02*
X184615714Y-59494819D01*
X134218095Y-83044819D02*
X134218095Y-82044819D01*
X134218095Y-82521009D02*
X134789523Y-82521009D01*
X134789523Y-83044819D02*
X134789523Y-82044819D01*
X135218095Y-82140057D02*
X135265714Y-82092438D01*
X135265714Y-82092438D02*
X135360952Y-82044819D01*
X135360952Y-82044819D02*
X135599047Y-82044819D01*
X135599047Y-82044819D02*
X135694285Y-82092438D01*
X135694285Y-82092438D02*
X135741904Y-82140057D01*
X135741904Y-82140057D02*
X135789523Y-82235295D01*
X135789523Y-82235295D02*
X135789523Y-82330533D01*
X135789523Y-82330533D02*
X135741904Y-82473390D01*
X135741904Y-82473390D02*
X135170476Y-83044819D01*
X135170476Y-83044819D02*
X135789523Y-83044819D01*
X167186905Y-79669819D02*
X167186905Y-78669819D01*
X167186905Y-78669819D02*
X167425000Y-78669819D01*
X167425000Y-78669819D02*
X167567857Y-78717438D01*
X167567857Y-78717438D02*
X167663095Y-78812676D01*
X167663095Y-78812676D02*
X167710714Y-78907914D01*
X167710714Y-78907914D02*
X167758333Y-79098390D01*
X167758333Y-79098390D02*
X167758333Y-79241247D01*
X167758333Y-79241247D02*
X167710714Y-79431723D01*
X167710714Y-79431723D02*
X167663095Y-79526961D01*
X167663095Y-79526961D02*
X167567857Y-79622200D01*
X167567857Y-79622200D02*
X167425000Y-79669819D01*
X167425000Y-79669819D02*
X167186905Y-79669819D01*
X168710714Y-79669819D02*
X168139286Y-79669819D01*
X168425000Y-79669819D02*
X168425000Y-78669819D01*
X168425000Y-78669819D02*
X168329762Y-78812676D01*
X168329762Y-78812676D02*
X168234524Y-78907914D01*
X168234524Y-78907914D02*
X168139286Y-78955533D01*
X166671666Y-52041009D02*
X166338333Y-52041009D01*
X166338333Y-52564819D02*
X166338333Y-51564819D01*
X166338333Y-51564819D02*
X166814523Y-51564819D01*
X167719285Y-52564819D02*
X167147857Y-52564819D01*
X167433571Y-52564819D02*
X167433571Y-51564819D01*
X167433571Y-51564819D02*
X167338333Y-51707676D01*
X167338333Y-51707676D02*
X167243095Y-51802914D01*
X167243095Y-51802914D02*
X167147857Y-51850533D01*
D12*
%TO.C,J2*%
X190397500Y-61485000D02*
X192027500Y-61485000D01*
X190397500Y-70685000D02*
X192027500Y-70685000D01*
%TO.C,R1*%
X178217133Y-64955000D02*
G75*
G02*
X178217133Y-63315000I-417133J820000D01*
G01*
%TO.C,U2*%
X123045000Y-60855000D02*
X124045000Y-59855000D01*
X123045000Y-75855000D02*
X123045000Y-60855000D01*
X123045000Y-75855000D02*
X124045000Y-76855000D01*
X124045000Y-59855000D02*
X159045000Y-59855000D01*
X124045000Y-76855000D02*
X159045000Y-76855000D01*
X159045000Y-76855000D02*
X160045000Y-75855000D01*
X160045000Y-60855000D02*
X159045000Y-59855000D01*
X160045000Y-75855000D02*
X160045000Y-60855000D01*
%TO.C,R2*%
X183297133Y-61780000D02*
G75*
G02*
X183297133Y-60140000I-417133J820000D01*
G01*
%TO.C,D1*%
X166910000Y-80035000D02*
X166910000Y-81255000D01*
X166910000Y-81255000D02*
X168725000Y-81255000D01*
X168725000Y-80035000D02*
X166910000Y-80035000D01*
%TO.C,F1*%
X163355000Y-53010000D02*
X163617000Y-53010000D01*
X163355000Y-53308000D02*
X163355000Y-53010000D01*
X163355000Y-56210000D02*
X163355000Y-54712000D01*
X165293000Y-53010000D02*
X170655000Y-53010000D01*
X168717000Y-56210000D02*
X163355000Y-56210000D01*
X170655000Y-53010000D02*
X170655000Y-54508000D01*
X170655000Y-55912000D02*
X170655000Y-56210000D01*
X170655000Y-56210000D02*
X170393000Y-56210000D01*
%TD*%
M02*
